<svg width="36" height="36" viewBox="0 0 36 36" fill="none" xmlns="http://www.w3.org/2000/svg">
<path d="M18 -7.86805e-07C27.9411 -1.22135e-06 36 8.05887 36 18C36 27.9411 27.9411 36 18 36C8.05887 36 -3.52265e-07 27.9411 -7.86805e-07 18C-1.22135e-06 8.05887 8.05887 -3.52265e-07 18 -7.86805e-07ZM18 31.6698C25.5496 31.6698 31.6698 25.5496 31.6698 18C31.6698 10.4504 25.5496 4.33018 18 4.33018C10.4504 4.33018 4.33018 10.4504 4.33018 18C4.33018 25.5496 10.4504 31.6698 18 31.6698Z" fill="#00B84A"/>
<path d="M10.5 18L15.8125 23L25 13" stroke="#00B84A" stroke-width="4"/>
</svg>
