<svg width="20" height="20" viewBox="0 0 20 20" fill="none" xmlns="http://www.w3.org/2000/svg">
<path d="M10 -4.37114e-07C7.68645 -3.35985e-07 5.44447 0.802192 3.65607 2.2699C1.86767 3.7376 0.643498 5.78 0.192147 8.0491C-0.259205 10.3182 0.0901857 12.6736 1.18079 14.714C2.27139 16.7543 4.03572 18.3534 6.17316 19.2388C8.31061 20.1242 10.6889 20.241 12.9028 19.5694C15.1168 18.8978 17.0294 17.4794 18.3147 15.5557C19.6 13.6321 20.1786 11.3222 19.9518 9.01983C19.7251 6.71742 18.707 4.56486 17.0711 2.92893L15.8528 4.14724C17.2068 5.50131 18.0495 7.28299 18.2372 9.18871C18.4249 11.0944 17.946 13.0063 16.8821 14.5985C15.8182 16.1907 14.2352 17.3648 12.4027 17.9206C10.5702 18.4765 8.60168 18.3798 6.83251 17.647C5.06334 16.9142 3.60299 15.5906 2.70029 13.9018C1.7976 12.2129 1.5084 10.2634 1.88199 8.38523C2.25558 6.50708 3.26883 4.81658 4.74909 3.60175C6.22936 2.38693 8.08506 1.72295 10 1.72295L10 -4.37114e-07Z" fill="#6B11FF"/>
</svg>
