<svg width="36" height="36" viewBox="0 0 36 36" fill="none" xmlns="http://www.w3.org/2000/svg">
<path d="M18 -7.86805e-07C13.7827 -6.02462e-07 9.69934 1.48078 6.46235 4.18397C3.22535 6.88716 1.04027 10.6411 0.288387 14.7908C-0.463499 18.9405 0.265545 23.2225 2.34831 26.8896C4.43107 30.5567 7.73532 33.376 11.6845 34.8557C15.6336 36.3354 19.977 36.3814 23.9567 34.9858C27.9363 33.5902 31.2996 30.8416 33.4597 27.2195C35.6197 23.5974 36.4394 19.3319 35.7757 15.1671C35.112 11.0024 33.007 7.20298 29.828 4.43175L26.9826 7.69581C29.3968 9.80037 30.9954 12.6858 31.4995 15.8486C32.0035 19.0115 31.381 22.2509 29.7406 25.0016C28.1002 27.7523 25.546 29.8398 22.5237 30.8996C19.5014 31.9595 16.2029 31.9245 13.2038 30.8008C10.2046 29.6771 7.69529 27.536 6.11357 24.751C4.53185 21.9661 3.97819 18.7143 4.54919 15.5628C5.1202 12.4114 6.77962 9.56053 9.23791 7.50764C11.6962 5.45474 14.7973 4.33018 18 4.33018L18 -7.86805e-07Z" fill="#6B11FF"/>
</svg>
